<?xml version="1.0" encoding="utf-8"?>
<svg id="master-artboard" viewBox="0 0 1398.497802734375 913.9027709960938" version="1.1" xmlns="http://www.w3.org/2000/svg" x="0px" y="0px" enable-background="new 0 0 1400 980" width="1398.497802734375px" height="913.9027709960938px"><rect id="ee-background" x="0" y="0" width="1398.497802734375" height="913.9027709960938" style="fill: white; fill-opacity: 0; pointer-events: none;"/>
<pattern y="-1112" width="584.6" height="605.7" patternUnits="userSpaceOnUse" id="New_Pattern_2" viewBox="134 -757.1 584.6 605.7" overflow="visible">
	<g>
		<path d="M 134 -757.0999755859375 L 718.5 -757.0999755859375 L 718.5 -151.39999389648438 L 134 -151.39999389648438 Z" fill="none"/>
		<g>
			<path fill="#A4C85D" d="M661.7-270c-6.6-0.6-6.8-13.5-37-11.6c-30.3,1.9-54.1,20.6-52.2,62.8s29.6,54.1,38,76s6.5,41.9,6.5,41.9&#10;&#9;&#9;&#9;&#9;s9.8-22.5,29.3-35.7c19.5-13.2,55.9-37.4,67.5-68.8s-0.6-52.6-11.9-61.9C680.7-281.8,669.4-269.3,661.7-270z"/>
			<path fill="#B3D67E" d="M685.2-246.6l5.2,9.4l0.2-5.6c6.3,4.8,15.7,19.6,15.7,19.6c-4.8-15-15.2-26.3-15.2-26.3h15.2&#10;&#9;&#9;&#9;&#9;c-8.2-4.6-21-3.6-21-3.6l-8.9-7.7l8.9-2.2c-6.3-2.4-12.3,0-12.3,0l-6.3-2.9c2.7-21.1,3.7-36.9,3.7-36.9h-10.6&#10;&#9;&#9;&#9;&#9;c0,0,0.2,15.2-1.6,36.7c-4.4,1.2-11.7,3.2-17.7,5.3l-14.7-9.9h-14.2c0,0,10.6,0.7,13.5,3.9c2.9,3.1,11.7,8.5,11.7,8.5l-24,13.3&#10;&#9;&#9;&#9;&#9;l-14.7,2.2l9.7,1.7c0,0-7,4.8-12.3,9.7c-5.3,4.8-8.9,16.9-8.9,16.9s6-10.9,10.4-14c4.3-3.1,14-8.9,14-8.9s-1.7,6-1.2,12.1&#10;&#9;&#9;&#9;&#9;c0,0,3.6-10.9,7.5-15.2c3.9-4.3,14-9.9,14-9.9s-4.6,8.7-6.9,14.5l13.2-16.4c0,0,10-6.2,20.5-9.5c-0.6,6.3-1.3,13-2.2,20&#10;&#9;&#9;&#9;&#9;c-2.5,0.7-6.8,2.1-11.1,4c-6.5,2.9-18.8,10.1-18.8,10.1l-11.1,1.9l8,1.7c0,0-11.4,6-16.2,8l-12.8,1.7l8.7,1.7&#10;&#9;&#9;&#9;&#9;c0,0-9.7,6.5-13.5,12.6c0,0,12.3-8.7,22.9-14.2c10.6-5.6,16.2-6.9,16.2-6.9l-1.4,8.3l6.8-11.4c0,0,5.3-4.1,11.8-8&#10;&#9;&#9;&#9;&#9;c3.7-2.2,7.4-3.6,9.8-4.3c-0.7,4.7-1.5,9.4-2.4,14.2c-0.1,0.4-0.2,0.9-0.3,1.4c-5.4,3.1-16.1,9.3-20.5,11.4c-6,2.9-13.5,0-13.5,0&#10;&#9;&#9;&#9;&#9;l5.9,4.4c0,0-5.2,5.3-13.4,7.9c-8.2,2.7-19.8,12.3-19.8,12.3s13.5-6.5,19.3-8.2c5.8-1.7,19.6-10.7,19.6-10.7l-7.2,11l14.2-15&#10;&#9;&#9;&#9;&#9;l14.4-7.8c-1.1,5.2-2.4,10.6-3.8,16.2c-3,1.1-7.7,2.9-12.3,5.4c-7.5,4.1-18.1,10.9-18.1,10.9l-17.4,5.3c0,0,15-1.2,18.4-1.7&#10;&#9;&#9;&#9;&#9;l-11.1,22.7c0,0,6.5-9.2,10.1-14.2c3.6-5.1,5.3-11.6,9.4-13.8c3.1-1.6,14.4-7.6,19.9-10.5c-2,7.5-4.1,15.1-6.3,22.5&#10;&#9;&#9;&#9;&#9;c-8.7,4.6-19.9,12-19.9,12c-1.2,2.4-4.8,7.2-4.8,7.2c6.7-4.9,18.5-12.2,23.5-15.2c-8.1,26.8-16.3,49-16.3,49s8.6-18.7,18-43.2&#10;&#9;&#9;&#9;&#9;l4,12.1l1.9-4.8l-3.4-8l-0.5-4.4c2.7-7.4,5.5-15.1,8.1-23c10.4,7.8,13.5,17.6,13.5,17.6l4.3,1l-4.3-7.5&#10;&#9;&#9;&#9;&#9;c7.2,1.2,17.9,5.6,17.9,5.6c-3.6-6.5-10.6-6.3-17.9-10.1c-5.6-3-10.6-7.4-12.6-9.2c1.2-3.7,2.3-7.3,3.4-11&#10;&#9;&#9;&#9;&#9;c0.3-1.1,0.6-2.1,0.9-3.2l3.9,1.7c0,0,9.2,7,13,9.7c3.9,2.7,9.2,10.1,9.2,10.1l-3.8-8.7c7.3,3.6,19.5,1.9,19.5,1.9&#10;&#9;&#9;&#9;&#9;s-3.9-1-14.5-3.6c-10.6-2.7-14.5-6.6-14.5-6.6l6.5-5.2c0,0-7,2.2-11.1,1c-2.4-0.7-5.2-2.7-7.2-4.2c1.9-7.4,3.6-15.2,5.1-22.9&#10;&#9;&#9;&#9;&#9;l8.4,7.1l4.8,12.1v-8.5c0,0,9.7,8.7,13.3,10.1c3.6,1.4,15.7,7.7,15.7,7.7c-5.8-4.6-14.5-10.9-14.5-10.9l10.4-1.7l-14.9-3.6&#10;&#9;&#9;&#9;&#9;l-11-7.2l14.5-1c-7.2-4.6-18.4-3.9-18.4-3.9l-7.5-5.3c1.3-7.4,2.4-14.6,3.3-21.4C677.2-256.2,685.2-246.6,685.2-246.6z"/>
			<path fill="#7BB157" d="M483.1-169c6.6-0.6,6.8-13.5,37-11.6c30.3,1.9,54.1,20.6,52.2,62.8s-29.6,54.1-38,76&#10;&#9;&#9;&#9;&#9;C525.9-20,527.8,0,527.8,0s-9.8-22.5-29.3-35.7s-55.9-37.4-67.5-68.8s0.6-52.6,11.9-61.9C464.1-180.8,475.4-168.4,483.1-169z"/>
			<path fill="#8FC267" d="M459.6-145.6l-5.2,9.4l-0.2-5.6c-6.3,4.8-15.7,19.6-15.7,19.6c4.8-15,15.2-26.3,15.2-26.3h-15.2&#10;&#9;&#9;&#9;&#9;c8.2-4.6,21-3.6,21-3.6l8.9-7.7l-8.9-2.2c6.3-2.4,12.3,0,12.3,0l6.3-2.9c-2.7-21.1-3.7-36.9-3.7-36.9H485c0,0-0.2,15.2,1.6,36.7&#10;&#9;&#9;&#9;&#9;c4.4,1.2,11.7,3.2,17.7,5.3l14.7-9.9h14.2c0,0-10.6,0.7-13.5,3.9s-11.7,8.5-11.7,8.5l24,13.3l14.7,2.2l-9.7,1.7&#10;&#9;&#9;&#9;&#9;c0,0,7,4.8,12.3,9.7c5.3,4.8,8.9,16.9,8.9,16.9s-6-10.9-10.4-14s-14-8.9-14-8.9s1.7,6,1.2,12.1c0,0-3.6-10.9-7.5-15.2&#10;&#9;&#9;&#9;&#9;c-3.9-4.3-14-9.9-14-9.9s4.6,8.7,6.9,14.5l-13.2-16.4c0,0-10-6.2-20.5-9.5c0.6,6.3,1.3,13,2.2,20c2.5,0.7,6.8,2.1,11.1,4&#10;&#9;&#9;&#9;&#9;c6.5,2.9,18.8,10.1,18.8,10.1l11.1,1.9l-8,1.7c0,0,11.4,6,16.2,8l12.8,1.7l-8.7,1.7c0,0,9.7,6.5,13.5,12.6&#10;&#9;&#9;&#9;&#9;c0,0-12.3-8.7-22.9-14.2c-10.6-5.6-16.2-6.9-16.2-6.9l1.4,8.3l-6.8-11.4c0,0-5.3-4.1-11.8-8c-3.7-2.2-7.4-3.6-9.8-4.3&#10;&#9;&#9;&#9;&#9;c0.7,4.7,1.5,9.4,2.4,14.2c0.1,0.4,0.2,0.9,0.3,1.4c5.4,3.1,16.1,9.3,20.5,11.4c6,2.9,13.5,0,13.5,0l-5.9,4.4&#10;&#9;&#9;&#9;&#9;c0,0,5.2,5.3,13.4,7.9c8.2,2.7,19.8,12.3,19.8,12.3s-13.5-6.5-19.3-8.2c-5.8-1.7-19.6-10.7-19.6-10.7l7.2,11l-14.2-15l-14.4-7.8&#10;&#9;&#9;&#9;&#9;c1.1,5.2,2.4,10.6,3.8,16.2c3,1.1,7.7,2.9,12.3,5.4c7.5,4.1,18.1,10.9,18.1,10.9l17.4,5.3c0,0-15-1.2-18.4-1.7l11.1,22.7&#10;&#9;&#9;&#9;&#9;c0,0-6.5-9.2-10.1-14.2c-3.6-5.1-5.3-11.6-9.4-13.8c-3.1-1.6-14.4-7.6-19.9-10.5c2,7.5,4.1,15.1,6.3,22.5&#10;&#9;&#9;&#9;&#9;c8.7,4.6,19.9,12,19.9,12c1.2,2.4,4.8,7.2,4.8,7.2c-6.7-4.9-18.5-12.2-23.5-15.2c8.1,26.8,16.3,49,16.3,49s-8.6-18.7-18-43.2&#10;&#9;&#9;&#9;&#9;l-4,12.1l-1.9-4.8l3.4-8l0.5-4.4c-2.7-7.4-5.5-15.1-8.1-23c-10.4,7.8-13.5,17.6-13.5,17.6l-4.3,1l4.3-7.5&#10;&#9;&#9;&#9;&#9;c-7.2,1.2-17.9,5.6-17.9,5.6c3.6-6.5,10.6-6.3,17.9-10.1c5.6-3,10.6-7.4,12.6-9.2c-1.2-3.7-2.3-7.3-3.4-11&#10;&#9;&#9;&#9;&#9;c-0.3-1.1-0.6-2.1-0.9-3.2L485-106c0,0-9.2,7-13,9.7c-3.9,2.7-9.2,10.1-9.2,10.1l3.8-8.7c-7.3,3.6-19.5,1.9-19.5,1.9&#10;&#9;&#9;&#9;&#9;s3.9-1,14.5-3.6s14.5-6.6,14.5-6.6l-6.5-5.2c0,0,7,2.2,11.1,1c2.4-0.7,5.2-2.7,7.2-4.2c-1.9-7.4-3.6-15.2-5.1-22.9l-8.4,7.1&#10;&#9;&#9;&#9;&#9;l-4.8,12.1v-8.5c0,0-9.7,8.7-13.3,10.1c-3.6,1.4-15.7,7.7-15.7,7.7c5.8-4.6,14.5-10.9,14.5-10.9l-10.4-1.7l14.9-3.6l11-7.2&#10;&#9;&#9;&#9;&#9;l-14.5-1c7.2-4.6,18.4-3.9,18.4-3.9l7.5-5.3c-1.3-7.4-2.4-14.6-3.3-21.4C467.6-155.2,459.6-145.6,459.6-145.6z"/>
		</g>
		<g>
			<path fill="#A4C85D" d="M369.4-270c-6.6-0.6-6.8-13.5-37-11.6c-30.3,1.9-54.1,20.6-52.2,62.8s29.6,54.1,38,76&#10;&#9;&#9;&#9;&#9;c8.4,21.9,6.5,41.9,6.5,41.9s9.8-22.5,29.3-35.7s55.9-37.4,67.5-68.8s-0.6-52.6-11.9-61.9C388.4-281.8,377.1-269.3,369.4-270z"/>
			<path fill="#B3D67E" d="M393-246.6l5.2,9.4l0.2-5.6c6.3,4.8,15.7,19.6,15.7,19.6c-4.8-15-15.2-26.3-15.2-26.3h15.2&#10;&#9;&#9;&#9;&#9;c-8.2-4.6-21-3.6-21-3.6l-8.9-7.7l8.9-2.2c-6.3-2.4-12.3,0-12.3,0l-6.3-2.9c2.7-21.1,3.7-36.9,3.7-36.9h-10.6&#10;&#9;&#9;&#9;&#9;c0,0,0.2,15.2-1.6,36.7c-4.4,1.2-11.7,3.2-17.7,5.3l-14.7-9.9h-14.2c0,0,10.6,0.7,13.5,3.9c2.9,3.1,11.7,8.5,11.7,8.5l-24,13.3&#10;&#9;&#9;&#9;&#9;l-14.7,2.2l9.7,1.7c0,0-7,4.8-12.3,9.7c-5.3,4.8-8.9,16.9-8.9,16.9s6-10.9,10.4-14c4.3-3.1,14-8.9,14-8.9s-1.7,6-1.2,12.1&#10;&#9;&#9;&#9;&#9;c0,0,3.6-10.9,7.5-15.2c3.9-4.3,14-9.9,14-9.9s-4.6,8.7-6.9,14.5l13.2-16.4c0,0,10-6.2,20.5-9.5c-0.6,6.3-1.3,13-2.2,20&#10;&#9;&#9;&#9;&#9;c-2.5,0.7-6.8,2.1-11.1,4c-6.5,2.9-18.8,10.1-18.8,10.1l-11.1,1.9l8,1.7c0,0-11.4,6-16.2,8l-12.8,1.7l8.7,1.7&#10;&#9;&#9;&#9;&#9;c0,0-9.7,6.5-13.5,12.6c0,0,12.3-8.7,22.9-14.2c10.6-5.6,16.2-6.9,16.2-6.9l-1.4,8.3l6.8-11.4c0,0,5.3-4.1,11.8-8&#10;&#9;&#9;&#9;&#9;c3.7-2.2,7.4-3.6,9.8-4.3c-0.7,4.7-1.5,9.4-2.4,14.2c-0.1,0.4-0.2,0.9-0.3,1.4c-5.4,3.1-16.1,9.3-20.5,11.4c-6,2.9-13.5,0-13.5,0&#10;&#9;&#9;&#9;&#9;l5.9,4.4c0,0-5.2,5.3-13.4,7.9c-8.2,2.7-19.8,12.3-19.8,12.3s13.5-6.5,19.3-8.2c5.8-1.7,19.6-10.7,19.6-10.7l-7.2,11l14.2-15&#10;&#9;&#9;&#9;&#9;l14.4-7.8c-1.1,5.2-2.4,10.6-3.8,16.2c-3,1.1-7.7,2.9-12.3,5.4c-7.5,4.1-18.1,10.9-18.1,10.9l-17.4,5.3c0,0,15-1.2,18.4-1.7&#10;&#9;&#9;&#9;&#9;l-11.1,22.7c0,0,6.5-9.2,10.1-14.2c3.6-5.1,5.3-11.6,9.4-13.8c3.1-1.6,14.4-7.6,19.9-10.5c-2,7.5-4.1,15.1-6.3,22.5&#10;&#9;&#9;&#9;&#9;c-8.7,4.6-19.9,12-19.9,12c-1.2,2.4-4.8,7.2-4.8,7.2c6.7-4.9,18.5-12.2,23.5-15.2c-8.1,26.8-16.3,49-16.3,49s8.6-18.7,18-43.2&#10;&#9;&#9;&#9;&#9;l4,12.1l1.9-4.8l-3.4-8l-0.5-4.4c2.7-7.4,5.5-15.1,8.1-23c10.4,7.8,13.5,17.6,13.5,17.6l4.3,1l-4.3-7.5&#10;&#9;&#9;&#9;&#9;c7.2,1.2,17.9,5.6,17.9,5.6c-3.6-6.5-10.6-6.3-17.9-10.1c-5.6-3-10.6-7.4-12.6-9.2c1.2-3.7,2.3-7.3,3.4-11&#10;&#9;&#9;&#9;&#9;c0.3-1.1,0.6-2.1,0.9-3.2l3.9,1.7c0,0,9.2,7,13,9.7c3.9,2.7,9.2,10.1,9.2,10.1l-3.8-8.7c7.3,3.6,19.5,1.9,19.5,1.9&#10;&#9;&#9;&#9;&#9;s-3.9-1-14.5-3.6c-10.6-2.7-14.5-6.6-14.5-6.6l6.5-5.2c0,0-7,2.2-11.1,1c-2.4-0.7-5.2-2.7-7.2-4.2c1.9-7.4,3.6-15.2,5.1-22.9&#10;&#9;&#9;&#9;&#9;l8.4,7.1l4.8,12.1v-8.5c0,0,9.7,8.7,13.3,10.1c3.6,1.4,15.7,7.7,15.7,7.7c-5.8-4.6-14.5-10.9-14.5-10.9l10.4-1.7l-14.9-3.6&#10;&#9;&#9;&#9;&#9;l-11-7.2l14.5-1c-7.2-4.6-18.4-3.9-18.4-3.9l-7.5-5.3c1.3-7.4,2.4-14.6,3.3-21.4C384.9-256.2,393-246.6,393-246.6z"/>
			<path fill="#7BB157" d="M190.8-169c6.6-0.6,6.8-13.5,37-11.6c30.3,1.9,54.1,20.6,52.2,62.8c-1.9,42.2-29.6,54.1-38,76&#10;&#9;&#9;&#9;&#9;S235.5,0,235.5,0s-9.8-22.5-29.3-35.7s-55.9-37.4-67.5-68.8c-11.6-31.4,0.6-52.6,11.9-61.9C171.8-180.8,183.1-168.4,190.8-169z"/>
			<path fill="#8FC267" d="M167.3-145.6l-5.2,9.4l-0.2-5.6c-6.3,4.8-15.7,19.6-15.7,19.6c4.8-15,15.2-26.3,15.2-26.3h-15.2&#10;&#9;&#9;&#9;&#9;c8.2-4.6,21-3.6,21-3.6l8.9-7.7l-8.9-2.2c6.3-2.4,12.3,0,12.3,0l6.3-2.9c-2.7-21.1-3.7-36.9-3.7-36.9h10.6c0,0-0.2,15.2,1.6,36.7&#10;&#9;&#9;&#9;&#9;c4.4,1.2,11.7,3.2,17.7,5.3l14.7-9.9H241c0,0-10.6,0.7-13.5,3.9s-11.7,8.5-11.7,8.5l24,13.3l14.7,2.2l-9.7,1.7&#10;&#9;&#9;&#9;&#9;c0,0,7,4.8,12.3,9.7c5.3,4.8,8.9,16.9,8.9,16.9s-6-10.9-10.4-14c-4.3-3.1-14-8.9-14-8.9s1.7,6,1.2,12.1c0,0-3.6-10.9-7.5-15.2&#10;&#9;&#9;&#9;&#9;c-3.9-4.3-14-9.9-14-9.9s4.6,8.7,6.9,14.5l-13.2-16.4c0,0-10-6.2-20.5-9.5c0.6,6.3,1.3,13,2.2,20c2.5,0.7,6.8,2.1,11.1,4&#10;&#9;&#9;&#9;&#9;c6.5,2.9,18.8,10.1,18.8,10.1l11.1,1.9l-8,1.7c0,0,11.4,6,16.2,8l12.8,1.7l-8.7,1.7c0,0,9.7,6.5,13.5,12.6&#10;&#9;&#9;&#9;&#9;c0,0-12.3-8.7-22.9-14.2c-10.6-5.6-16.2-6.9-16.2-6.9l1.4,8.3l-6.8-11.4c0,0-5.3-4.1-11.8-8c-3.7-2.2-7.4-3.6-9.8-4.3&#10;&#9;&#9;&#9;&#9;c0.7,4.7,1.5,9.4,2.4,14.2c0.1,0.4,0.2,0.9,0.3,1.4c5.4,3.1,16.1,9.3,20.5,11.4c6,2.9,13.5,0,13.5,0l-5.9,4.4&#10;&#9;&#9;&#9;&#9;c0,0,5.2,5.3,13.4,7.9s19.8,12.3,19.8,12.3s-13.5-6.5-19.3-8.2s-19.6-10.7-19.6-10.7l7.2,11l-14.2-15l-14.4-7.8&#10;&#9;&#9;&#9;&#9;c1.1,5.2,2.4,10.6,3.8,16.2c3,1.1,7.7,2.9,12.3,5.4c7.5,4.1,18.1,10.9,18.1,10.9l17.4,5.3c0,0-15-1.2-18.4-1.7l11.1,22.7&#10;&#9;&#9;&#9;&#9;c0,0-6.5-9.2-10.1-14.2c-3.6-5.1-5.3-11.6-9.4-13.8c-3.1-1.6-14.4-7.6-19.9-10.5c2,7.5,4.1,15.1,6.3,22.5&#10;&#9;&#9;&#9;&#9;c8.7,4.6,19.9,12,19.9,12c1.2,2.4,4.8,7.2,4.8,7.2c-6.7-4.9-18.5-12.2-23.5-15.2c8.1,26.8,16.3,49,16.3,49s-8.6-18.7-18-43.2&#10;&#9;&#9;&#9;&#9;l-4,12.1l-1.9-4.8l3.4-8l0.5-4.4c-2.7-7.4-5.5-15.1-8.1-23c-10.4,7.8-13.5,17.6-13.5,17.6l-4.3,1l4.3-7.5&#10;&#9;&#9;&#9;&#9;c-7.2,1.2-17.9,5.6-17.9,5.6c3.6-6.5,10.6-6.3,17.9-10.1c5.6-3,10.6-7.4,12.6-9.2c-1.2-3.7-2.3-7.3-3.4-11&#10;&#9;&#9;&#9;&#9;c-0.3-1.1-0.6-2.1-0.9-3.2l-3.9,1.7c0,0-9.2,7-13,9.7c-3.9,2.7-9.2,10.1-9.2,10.1l3.8-8.7c-7.3,3.6-19.5,1.9-19.5,1.9&#10;&#9;&#9;&#9;&#9;s3.9-1,14.5-3.6c10.6-2.7,14.5-6.6,14.5-6.6l-6.5-5.2c0,0,7,2.2,11.1,1c2.4-0.7,5.2-2.7,7.2-4.2c-1.9-7.4-3.6-15.2-5.1-22.9&#10;&#9;&#9;&#9;&#9;l-8.4,7.1l-4.8,12.1v-8.5c0,0-9.7,8.7-13.3,10.1s-15.7,7.7-15.7,7.7c5.8-4.6,14.5-10.9,14.5-10.9l-10.4-1.7l14.9-3.6l11-7.2&#10;&#9;&#9;&#9;&#9;l-14.5-1c7.2-4.6,18.4-3.9,18.4-3.9l7.5-5.3c-1.3-7.4-2.4-14.6-3.3-21.4C175.3-155.2,167.3-145.6,167.3-145.6z"/>
		</g>
		<g>
			<path fill="#C6D357" d="M527.7-390.3c-6.6-0.6-6.8-13.5-37-11.6c-30.3,1.9-54.1,20.6-52.2,62.8c1.9,42.2,29.6,54.1,38,76&#10;&#9;&#9;&#9;&#9;c8.4,21.9,6.5,41.9,6.5,41.9s9.8-22.5,29.3-35.7c19.5-13.2,55.9-37.4,67.5-68.8s-0.6-52.6-11.9-61.9&#10;&#9;&#9;&#9;&#9;C546.7-402,535.5-389.6,527.7-390.3z"/>
			<path fill="#DCDD70" d="M551.3-366.8l5.2,9.4l0.2-5.6c6.3,4.8,15.7,19.6,15.7,19.6c-4.8-15-15.2-26.3-15.2-26.3h15.2&#10;&#9;&#9;&#9;&#9;c-8.2-4.6-21-3.6-21-3.6l-8.9-7.7l8.9-2.2c-6.3-2.4-12.3,0-12.3,0l-6.3-2.9c2.7-21.1,3.7-36.9,3.7-36.9h-10.6&#10;&#9;&#9;&#9;&#9;c0,0,0.2,15.2-1.6,36.7c-4.4,1.2-11.7,3.2-17.7,5.3l-14.7-9.9h-14.2c0,0,10.6,0.7,13.5,3.9c2.9,3.1,11.7,8.5,11.7,8.5l-24,13.3&#10;&#9;&#9;&#9;&#9;l-14.7,2.2l9.7,1.7c0,0-7,4.8-12.3,9.7c-5.3,4.8-8.9,16.9-8.9,16.9s6-10.9,10.4-14s14-8.9,14-8.9s-1.7,6-1.2,12.1&#10;&#9;&#9;&#9;&#9;c0,0,3.6-10.9,7.5-15.2c3.9-4.3,14-9.9,14-9.9s-4.6,8.7-6.9,14.5l13.2-16.4c0,0,10-6.2,20.5-9.5c-0.6,6.3-1.3,13-2.2,20&#10;&#9;&#9;&#9;&#9;c-2.5,0.7-6.8,2.1-11.1,4c-6.5,2.9-18.8,10.1-18.8,10.1l-11.1,1.9l8,1.7c0,0-11.4,6-16.2,8l-12.8,1.7l8.7,1.7&#10;&#9;&#9;&#9;&#9;c0,0-9.7,6.5-13.5,12.6c0,0,12.3-8.7,22.9-14.2s16.2-6.9,16.2-6.9l-1.4,8.3l6.8-11.4c0,0,5.3-4.1,11.8-8c3.7-2.2,7.4-3.6,9.8-4.3&#10;&#9;&#9;&#9;&#9;c-0.7,4.7-1.5,9.4-2.4,14.2c-0.1,0.4-0.2,0.9-0.3,1.4c-5.4,3.1-16.1,9.3-20.5,11.4c-6,2.9-13.5,0-13.5,0l5.9,4.4&#10;&#9;&#9;&#9;&#9;c0,0-5.2,5.3-13.4,7.9c-8.2,2.7-19.8,12.3-19.8,12.3s13.5-6.5,19.3-8.2c5.8-1.7,19.6-10.7,19.6-10.7l-7.2,11l14.2-15l14.4-7.8&#10;&#9;&#9;&#9;&#9;c-1.1,5.2-2.4,10.6-3.8,16.2c-3,1.1-7.7,2.9-12.3,5.4c-7.5,4.1-18.1,10.9-18.1,10.9l-17.4,5.3c0,0,15-1.2,18.4-1.7l-11.1,22.7&#10;&#9;&#9;&#9;&#9;c0,0,6.5-9.2,10.1-14.2c3.6-5.1,5.3-11.6,9.4-13.8c3.1-1.6,14.4-7.6,19.9-10.5c-2,7.5-4.1,15.1-6.3,22.5&#10;&#9;&#9;&#9;&#9;c-8.7,4.6-19.9,12-19.9,12c-1.2,2.4-4.8,7.2-4.8,7.2c6.7-4.9,18.5-12.2,23.5-15.2c-8.1,26.8-16.3,49-16.3,49s8.6-18.7,18-43.2&#10;&#9;&#9;&#9;&#9;l4,12.1l1.9-4.8l-3.4-8l-0.5-4.4c2.7-7.4,5.5-15.1,8.1-23c10.4,7.8,13.5,17.6,13.5,17.6l4.3,1l-4.3-7.5&#10;&#9;&#9;&#9;&#9;c7.2,1.2,17.9,5.6,17.9,5.6c-3.6-6.5-10.6-6.3-17.9-10.1c-5.6-3-10.6-7.4-12.6-9.2c1.2-3.7,2.3-7.3,3.4-11&#10;&#9;&#9;&#9;&#9;c0.3-1.1,0.6-2.1,0.9-3.2l3.9,1.7c0,0,9.2,7,13,9.7c3.9,2.7,9.2,10.1,9.2,10.1l-3.8-8.7c7.3,3.6,19.5,1.9,19.5,1.9&#10;&#9;&#9;&#9;&#9;s-3.9-1-14.5-3.6c-10.6-2.7-14.5-6.6-14.5-6.6l6.5-5.2c0,0-7,2.2-11.1,1c-2.4-0.7-5.2-2.7-7.2-4.2c1.9-7.4,3.6-15.2,5.1-22.9&#10;&#9;&#9;&#9;&#9;l8.4,7.1l4.8,12.1v-8.5c0,0,9.7,8.7,13.3,10.1s15.7,7.7,15.7,7.7c-5.8-4.6-14.5-10.9-14.5-10.9l10.4-1.7l-14.9-3.6l-11-7.2&#10;&#9;&#9;&#9;&#9;l14.5-1c-7.2-4.6-18.4-3.9-18.4-3.9l-7.5-5.3c1.3-7.4,2.4-14.6,3.3-21.4C543.2-376.5,551.3-366.8,551.3-366.8z"/>
			<path fill="#7BB157" d="M629.2-471.9c6.6-0.6,6.8-13.5,37-11.6c30.3,1.9,54.1,20.6,52.2,62.8s-29.6,54.1-38,76&#10;&#9;&#9;&#9;&#9;s-6.5,41.9-6.5,41.9s-9.8-22.5-29.3-35.7c-19.5-13.2-55.9-37.4-67.5-68.8s0.6-52.6,11.9-61.9&#10;&#9;&#9;&#9;&#9;C610.2-483.7,621.5-471.2,629.2-471.9z"/>
			<path fill="#8FC267" d="M605.7-448.5l-5.2,9.4l-0.2-5.6c-6.3,4.8-15.7,19.6-15.7,19.6c4.8-15,15.2-26.3,15.2-26.3h-15.2&#10;&#9;&#9;&#9;&#9;c8.2-4.6,21-3.6,21-3.6l8.9-7.7l-8.9-2.2c6.3-2.4,12.3,0,12.3,0l6.3-2.9c-2.7-21.1-3.7-36.9-3.7-36.9h10.6c0,0-0.2,15.2,1.6,36.7&#10;&#9;&#9;&#9;&#9;c4.4,1.2,11.7,3.2,17.7,5.3l14.7-9.9h14.2c0,0-10.6,0.7-13.5,3.9c-2.9,3.1-11.7,8.5-11.7,8.5l24,13.3l14.7,2.2l-9.7,1.7&#10;&#9;&#9;&#9;&#9;c0,0,7,4.8,12.3,9.7s8.9,16.9,8.9,16.9s-6-10.9-10.4-14c-4.3-3.1-14-8.9-14-8.9s1.7,6,1.2,12.1c0,0-3.6-10.9-7.5-15.2&#10;&#9;&#9;&#9;&#9;c-3.9-4.3-14-9.9-14-9.9s4.6,8.7,6.9,14.5l-13.2-16.4c0,0-10-6.2-20.5-9.5c0.6,6.3,1.3,13,2.2,20c2.5,0.7,6.8,2.1,11.1,4&#10;&#9;&#9;&#9;&#9;c6.5,2.9,18.8,10.1,18.8,10.1l11.1,1.9l-8,1.7c0,0,11.4,6,16.2,8l12.8,1.7l-8.7,1.7c0,0,9.7,6.5,13.5,12.6&#10;&#9;&#9;&#9;&#9;c0,0-12.3-8.7-22.9-14.2c-10.6-5.6-16.2-6.9-16.2-6.9l1.4,8.3l-6.8-11.4c0,0-5.3-4.1-11.8-8c-3.7-2.2-7.4-3.6-9.8-4.3&#10;&#9;&#9;&#9;&#9;c0.7,4.7,1.5,9.4,2.4,14.2c0.1,0.4,0.2,0.9,0.3,1.4c5.4,3.1,16.1,9.3,20.5,11.4c6,2.9,13.5,0,13.5,0l-5.9,4.4&#10;&#9;&#9;&#9;&#9;c0,0,5.2,5.3,13.4,7.9c8.2,2.7,19.8,12.3,19.8,12.3s-13.5-6.5-19.3-8.2c-5.8-1.7-19.6-10.7-19.6-10.7l7.2,11l-14.2-15l-14.4-7.8&#10;&#9;&#9;&#9;&#9;c1.1,5.2,2.4,10.6,3.8,16.2c3,1.1,7.7,2.9,12.3,5.4c7.5,4.1,18.1,10.9,18.1,10.9l17.4,5.3c0,0-15-1.2-18.4-1.7l11.1,22.7&#10;&#9;&#9;&#9;&#9;c0,0-6.5-9.2-10.1-14.2c-3.6-5.1-5.3-11.6-9.4-13.8c-3.1-1.6-14.4-7.6-19.9-10.5c2,7.5,4.1,15.1,6.3,22.5&#10;&#9;&#9;&#9;&#9;c8.7,4.6,19.9,12,19.9,12c1.2,2.4,4.8,7.2,4.8,7.2c-6.7-4.9-18.5-12.2-23.5-15.2c8.1,26.8,16.3,49,16.3,49s-8.6-18.7-18-43.2&#10;&#9;&#9;&#9;&#9;l-4,12.1l-1.9-4.8l3.4-8l0.5-4.4c-2.7-7.4-5.5-15.1-8.1-23c-10.4,7.8-13.5,17.6-13.5,17.6l-4.3,1l4.3-7.5&#10;&#9;&#9;&#9;&#9;c-7.2,1.2-17.9,5.6-17.9,5.6c3.6-6.5,10.6-6.3,17.9-10.1c5.6-3,10.6-7.4,12.6-9.2c-1.2-3.7-2.3-7.3-3.4-11&#10;&#9;&#9;&#9;&#9;c-0.3-1.1-0.6-2.1-0.9-3.2l-3.9,1.7c0,0-9.2,7-13,9.7c-3.9,2.7-9.2,10.1-9.2,10.1l3.8-8.7c-7.3,3.6-19.5,1.9-19.5,1.9&#10;&#9;&#9;&#9;&#9;s3.9-1,14.5-3.6c10.6-2.7,14.5-6.6,14.5-6.6l-6.5-5.2c0,0,7,2.2,11.1,1c2.4-0.7,5.2-2.7,7.2-4.2c-1.9-7.4-3.6-15.2-5.1-22.9&#10;&#9;&#9;&#9;&#9;l-8.4,7.1l-4.8,12.1v-8.5c0,0-9.7,8.7-13.3,10.1c-3.6,1.4-15.7,7.7-15.7,7.7c5.8-4.6,14.5-10.9,14.5-10.9l-10.4-1.7l14.9-3.6&#10;&#9;&#9;&#9;&#9;l11-7.2l-14.5-1c7.2-4.6,18.4-3.9,18.4-3.9l7.5-5.3c-1.3-7.4-2.4-14.6-3.3-21.4C613.7-458.1,605.7-448.5,605.7-448.5z"/>
		</g>
		<g>
			<path fill="#A4C85D" d="M515.6-572.8c-6.6-0.6-6.8-13.5-37-11.6c-30.3,1.9-54.1,20.6-52.2,62.8c1.9,42.2,29.6,54.1,38,76&#10;&#9;&#9;&#9;&#9;c8.4,21.9,6.5,41.9,6.5,41.9s9.8-22.5,29.3-35.7c19.5-13.2,55.9-37.4,67.5-68.8s-0.6-52.6-11.9-61.9&#10;&#9;&#9;&#9;&#9;C534.6-584.6,523.3-572.2,515.6-572.8z"/>
			<path fill="#B3D67E" d="M539.1-549.4l5.2,9.4l0.2-5.6c6.3,4.8,15.7,19.6,15.7,19.6c-4.8-15-15.2-26.3-15.2-26.3h15.2&#10;&#9;&#9;&#9;&#9;c-8.2-4.6-21-3.6-21-3.6l-8.9-7.7l8.9-2.2c-6.3-2.4-12.3,0-12.3,0l-6.3-2.9c2.7-21.1,3.7-36.9,3.7-36.9h-10.6&#10;&#9;&#9;&#9;&#9;c0,0,0.2,15.2-1.6,36.7c-4.4,1.2-11.7,3.2-17.7,5.3l-14.7-9.9h-14.2c0,0,10.6,0.7,13.5,3.9c2.9,3.1,11.7,8.5,11.7,8.5l-24,13.3&#10;&#9;&#9;&#9;&#9;l-14.7,2.2l9.7,1.7c0,0-7,4.8-12.3,9.7c-5.3,4.8-8.9,16.9-8.9,16.9s6-10.9,10.4-14c4.3-3.1,14-8.9,14-8.9s-1.7,6-1.2,12.1&#10;&#9;&#9;&#9;&#9;c0,0,3.6-10.9,7.5-15.2c3.9-4.3,14-9.9,14-9.9s-4.6,8.7-6.9,14.5l13.2-16.4c0,0,10-6.2,20.5-9.5c-0.6,6.3-1.3,13-2.2,20&#10;&#9;&#9;&#9;&#9;c-2.5,0.7-6.8,2.1-11.1,4c-6.5,2.9-18.8,10.1-18.8,10.1l-11.1,1.9l8,1.7c0,0-11.4,6-16.2,8l-12.8,1.7l8.7,1.7&#10;&#9;&#9;&#9;&#9;c0,0-9.7,6.5-13.5,12.6c0,0,12.3-8.7,22.9-14.2c10.6-5.6,16.2-6.9,16.2-6.9l-1.4,8.3l6.8-11.4c0,0,5.3-4.1,11.8-8&#10;&#9;&#9;&#9;&#9;c3.7-2.2,7.4-3.6,9.8-4.3c-0.7,4.7-1.5,9.4-2.4,14.2c-0.1,0.4-0.2,0.9-0.3,1.4c-5.4,3.1-16.1,9.3-20.5,11.4c-6,2.9-13.5,0-13.5,0&#10;&#9;&#9;&#9;&#9;l5.9,4.4c0,0-5.2,5.3-13.4,7.9c-8.2,2.7-19.8,12.3-19.8,12.3s13.5-6.5,19.3-8.2c5.8-1.7,19.6-10.7,19.6-10.7l-7.2,11l14.2-15&#10;&#9;&#9;&#9;&#9;l14.4-7.8c-1.1,5.2-2.4,10.6-3.8,16.2c-3,1.1-7.7,2.9-12.3,5.4c-7.5,4.1-18.1,10.9-18.1,10.9l-17.4,5.3c0,0,15-1.2,18.4-1.7&#10;&#9;&#9;&#9;&#9;L460.7-460c0,0,6.5-9.2,10.1-14.2c3.6-5.1,5.3-11.6,9.4-13.8c3.1-1.6,14.4-7.6,19.9-10.5c-2,7.5-4.1,15.1-6.3,22.5&#10;&#9;&#9;&#9;&#9;c-8.7,4.6-19.9,12-19.9,12c-1.2,2.4-4.8,7.2-4.8,7.2c6.7-4.9,18.5-12.2,23.5-15.2c-8.1,26.8-16.3,49-16.3,49s8.6-18.7,18-43.2&#10;&#9;&#9;&#9;&#9;l4,12.1l1.9-4.8l-3.4-8l-0.5-4.4c2.7-7.4,5.5-15.1,8.1-23c10.4,7.8,13.5,17.6,13.5,17.6l4.3,1l-4.3-7.5&#10;&#9;&#9;&#9;&#9;c7.2,1.2,17.9,5.6,17.9,5.6c-3.6-6.5-10.6-6.3-17.9-10.1c-5.6-3-10.6-7.4-12.6-9.2c1.2-3.7,2.3-7.3,3.4-11&#10;&#9;&#9;&#9;&#9;c0.3-1.1,0.6-2.1,0.9-3.2l3.9,1.7c0,0,9.2,7,13,9.7c3.9,2.7,9.2,10.1,9.2,10.1l-3.8-8.7c7.3,3.6,19.5,1.9,19.5,1.9&#10;&#9;&#9;&#9;&#9;s-3.9-1-14.5-3.6c-10.6-2.7-14.5-6.6-14.5-6.6l6.5-5.2c0,0-7,2.2-11.1,1c-2.4-0.7-5.2-2.7-7.2-4.2c1.9-7.4,3.6-15.2,5.1-22.9&#10;&#9;&#9;&#9;&#9;l8.4,7.1l4.8,12.1v-8.5c0,0,9.7,8.7,13.3,10.1c3.6,1.4,15.7,7.7,15.7,7.7c-5.8-4.6-14.5-10.9-14.5-10.9l10.4-1.7l-14.9-3.6&#10;&#9;&#9;&#9;&#9;l-11-7.2l14.5-1c-7.2-4.6-18.4-3.9-18.4-3.9l-7.5-5.3c1.3-7.4,2.4-14.6,3.3-21.4C531.1-559,539.1-549.4,539.1-549.4z"/>
			<path fill="#C6D357" d="M235.4-390.3c-6.6-0.6-6.8-13.5-37-11.6c-30.3,1.9-54.1,20.6-52.2,62.8s29.6,54.1,38,76&#10;&#9;&#9;&#9;&#9;s6.5,41.9,6.5,41.9s9.8-22.5,29.3-35.7s55.9-37.4,67.5-68.8s-0.6-52.6-11.9-61.9C254.4-402,243.2-389.6,235.4-390.3z"/>
			<path fill="#DCDD70" d="M259-366.8l5.2,9.4l0.2-5.6c6.3,4.8,15.7,19.6,15.7,19.6c-4.8-15-15.2-26.3-15.2-26.3h15.2&#10;&#9;&#9;&#9;&#9;c-8.2-4.6-21-3.6-21-3.6l-8.9-7.7l8.9-2.2c-6.3-2.4-12.3,0-12.3,0l-6.3-2.9c2.7-21.1,3.7-36.9,3.7-36.9h-10.6&#10;&#9;&#9;&#9;&#9;c0,0,0.2,15.2-1.6,36.7c-4.4,1.2-11.7,3.2-17.7,5.3l-14.7-9.9h-14.2c0,0,10.6,0.7,13.5,3.9s11.7,8.5,11.7,8.5l-24,13.3l-14.7,2.2&#10;&#9;&#9;&#9;&#9;l9.7,1.7c0,0-7,4.8-12.3,9.7c-5.3,4.8-8.9,16.9-8.9,16.9s6-10.9,10.4-14c4.3-3.1,14-8.9,14-8.9s-1.7,6-1.2,12.1&#10;&#9;&#9;&#9;&#9;c0,0,3.6-10.9,7.5-15.2c3.9-4.3,14-9.9,14-9.9s-4.6,8.7-6.9,14.5l13.2-16.4c0,0,10-6.2,20.5-9.5c-0.6,6.3-1.3,13-2.2,20&#10;&#9;&#9;&#9;&#9;c-2.5,0.7-6.8,2.1-11.1,4c-6.5,2.9-18.8,10.1-18.8,10.1l-11.1,1.9l8,1.7c0,0-11.4,6-16.2,8l-12.8,1.7l8.7,1.7&#10;&#9;&#9;&#9;&#9;c0,0-9.7,6.5-13.5,12.6c0,0,12.3-8.7,22.9-14.2s16.2-6.9,16.2-6.9l-1.4,8.3l6.8-11.4c0,0,5.3-4.1,11.8-8c3.7-2.2,7.4-3.6,9.8-4.3&#10;&#9;&#9;&#9;&#9;c-0.7,4.7-1.5,9.4-2.4,14.2c-0.1,0.4-0.2,0.9-0.3,1.4c-5.4,3.1-16.1,9.3-20.5,11.4c-6,2.9-13.5,0-13.5,0l5.9,4.4&#10;&#9;&#9;&#9;&#9;c0,0-5.2,5.3-13.4,7.9c-8.2,2.7-19.8,12.3-19.8,12.3s13.5-6.5,19.3-8.2c5.8-1.7,19.6-10.7,19.6-10.7l-7.2,11l14.2-15l14.4-7.8&#10;&#9;&#9;&#9;&#9;c-1.1,5.2-2.4,10.6-3.8,16.2c-3,1.1-7.7,2.9-12.3,5.4c-7.5,4.1-18.1,10.9-18.1,10.9l-17.4,5.3c0,0,15-1.2,18.4-1.7l-11.1,22.7&#10;&#9;&#9;&#9;&#9;c0,0,6.5-9.2,10.1-14.2c3.6-5.1,5.3-11.6,9.4-13.8c3.1-1.6,14.4-7.6,19.9-10.5c-2,7.5-4.1,15.1-6.3,22.5&#10;&#9;&#9;&#9;&#9;c-8.7,4.6-19.9,12-19.9,12c-1.2,2.4-4.8,7.2-4.8,7.2c6.7-4.9,18.5-12.2,23.5-15.2c-8.1,26.8-16.3,49-16.3,49s8.6-18.7,18-43.2&#10;&#9;&#9;&#9;&#9;l4,12.1l1.9-4.8l-3.4-8l-0.5-4.4c2.7-7.4,5.5-15.1,8.1-23c10.4,7.8,13.5,17.6,13.5,17.6l4.3,1l-4.3-7.5&#10;&#9;&#9;&#9;&#9;c7.2,1.2,17.9,5.6,17.9,5.6c-3.6-6.5-10.6-6.3-17.9-10.1c-5.6-3-10.6-7.4-12.6-9.2c1.2-3.7,2.3-7.3,3.4-11&#10;&#9;&#9;&#9;&#9;c0.3-1.1,0.6-2.1,0.9-3.2l3.9,1.7c0,0,9.2,7,13,9.7c3.9,2.7,9.2,10.1,9.2,10.1l-3.8-8.7c7.3,3.6,19.5,1.9,19.5,1.9&#10;&#9;&#9;&#9;&#9;s-3.9-1-14.5-3.6c-10.6-2.7-14.5-6.6-14.5-6.6l6.5-5.2c0,0-7,2.2-11.1,1c-2.4-0.7-5.2-2.7-7.2-4.2c1.9-7.4,3.6-15.2,5.1-22.9&#10;&#9;&#9;&#9;&#9;l8.4,7.1l4.8,12.1v-8.5c0,0,9.7,8.7,13.3,10.1s15.7,7.7,15.7,7.7c-5.8-4.6-14.5-10.9-14.5-10.9l10.4-1.7l-14.9-3.6l-11-7.2&#10;&#9;&#9;&#9;&#9;l14.5-1c-7.2-4.6-18.4-3.9-18.4-3.9l-7.5-5.3c1.3-7.4,2.4-14.6,3.3-21.4C251-376.5,259-366.8,259-366.8z"/>
			<path fill="#7BB157" d="M337-471.9c6.6-0.6,6.8-13.5,37-11.6c30.3,1.9,54.1,20.6,52.2,62.8s-29.6,54.1-38,76&#10;&#9;&#9;&#9;&#9;c-8.4,21.9-6.5,41.9-6.5,41.9s-9.8-22.5-29.3-35.7c-19.5-13.2-55.9-37.4-67.5-68.8s0.6-52.6,11.9-61.9&#10;&#9;&#9;&#9;&#9;C318-483.7,329.2-471.2,337-471.9z"/>
			<path fill="#8FC267" d="M313.4-448.5l-5.2,9.4l-0.2-5.6c-6.3,4.8-15.7,19.6-15.7,19.6c4.8-15,15.2-26.3,15.2-26.3h-15.2&#10;&#9;&#9;&#9;&#9;c8.2-4.6,21-3.6,21-3.6l8.9-7.7l-8.9-2.2c6.3-2.4,12.3,0,12.3,0l6.3-2.9c-2.7-21.1-3.7-36.9-3.7-36.9h10.6c0,0-0.2,15.2,1.6,36.7&#10;&#9;&#9;&#9;&#9;c4.4,1.2,11.7,3.2,17.7,5.3l14.7-9.9h14.2c0,0-10.6,0.7-13.5,3.9c-2.9,3.1-11.7,8.5-11.7,8.5l24,13.3l14.7,2.2l-9.7,1.7&#10;&#9;&#9;&#9;&#9;c0,0,7,4.8,12.3,9.7c5.3,4.8,8.9,16.9,8.9,16.9s-6-10.9-10.4-14c-4.3-3.1-14-8.9-14-8.9s1.7,6,1.2,12.1c0,0-3.6-10.9-7.5-15.2&#10;&#9;&#9;&#9;&#9;s-14-9.9-14-9.9s4.6,8.7,6.9,14.5l-13.2-16.4c0,0-10-6.2-20.5-9.5c0.6,6.3,1.3,13,2.2,20c2.5,0.7,6.8,2.1,11.1,4&#10;&#9;&#9;&#9;&#9;c6.5,2.9,18.8,10.1,18.8,10.1l11.1,1.9l-8,1.7c0,0,11.4,6,16.2,8l12.8,1.7l-8.7,1.7c0,0,9.7,6.5,13.5,12.6&#10;&#9;&#9;&#9;&#9;c0,0-12.3-8.7-22.9-14.2c-10.6-5.6-16.2-6.9-16.2-6.9l1.4,8.3l-6.8-11.4c0,0-5.3-4.1-11.8-8c-3.7-2.2-7.4-3.6-9.8-4.3&#10;&#9;&#9;&#9;&#9;c0.7,4.7,1.5,9.4,2.4,14.2c0.1,0.4,0.2,0.9,0.3,1.4c5.4,3.1,16.1,9.3,20.5,11.4c6,2.9,13.5,0,13.5,0l-5.9,4.4&#10;&#9;&#9;&#9;&#9;c0,0,5.2,5.3,13.4,7.9c8.2,2.7,19.8,12.3,19.8,12.3s-13.5-6.5-19.3-8.2c-5.8-1.7-19.6-10.7-19.6-10.7l7.2,11l-14.2-15l-14.4-7.8&#10;&#9;&#9;&#9;&#9;c1.1,5.2,2.4,10.6,3.8,16.2c3,1.1,7.7,2.9,12.3,5.4c7.5,4.1,18.1,10.9,18.1,10.9l17.4,5.3c0,0-15-1.2-18.4-1.7l11.1,22.7&#10;&#9;&#9;&#9;&#9;c0,0-6.5-9.2-10.1-14.2c-3.6-5.1-5.3-11.6-9.4-13.8c-3.1-1.6-14.4-7.6-19.9-10.5c2,7.5,4.1,15.1,6.3,22.5&#10;&#9;&#9;&#9;&#9;c8.7,4.6,19.9,12,19.9,12c1.2,2.4,4.8,7.2,4.8,7.2c-6.7-4.9-18.5-12.2-23.5-15.2c8.1,26.8,16.3,49,16.3,49s-8.6-18.7-18-43.2&#10;&#9;&#9;&#9;&#9;l-4,12.1l-1.9-4.8l3.4-8l0.5-4.4c-2.7-7.4-5.5-15.1-8.1-23c-10.4,7.8-13.5,17.6-13.5,17.6l-4.3,1l4.3-7.5&#10;&#9;&#9;&#9;&#9;c-7.2,1.2-17.9,5.6-17.9,5.6c3.6-6.5,10.6-6.3,17.9-10.1c5.6-3,10.6-7.4,12.6-9.2c-1.2-3.7-2.3-7.3-3.4-11&#10;&#9;&#9;&#9;&#9;c-0.3-1.1-0.6-2.1-0.9-3.2l-3.9,1.7c0,0-9.2,7-13,9.7c-3.9,2.7-9.2,10.1-9.2,10.1l3.8-8.7c-7.3,3.6-19.5,1.9-19.5,1.9&#10;&#9;&#9;&#9;&#9;s3.9-1,14.5-3.6c10.6-2.7,14.5-6.6,14.5-6.6l-6.5-5.2c0,0,7,2.2,11.1,1c2.4-0.7,5.2-2.7,7.2-4.2c-1.9-7.4-3.6-15.2-5.1-22.9&#10;&#9;&#9;&#9;&#9;l-8.4,7.1l-4.8,12.1v-8.5c0,0-9.7,8.7-13.3,10.1c-3.6,1.4-15.7,7.7-15.7,7.7c5.8-4.6,14.5-10.9,14.5-10.9l-10.4-1.7l14.9-3.6&#10;&#9;&#9;&#9;&#9;l11-7.2l-14.5-1c7.2-4.6,18.4-3.9,18.4-3.9l7.5-5.3c-1.3-7.4-2.4-14.6-3.3-21.4C321.4-458.1,313.4-448.5,313.4-448.5z"/>
		</g>
		<g>
			<path fill="#A4C85D" d="M223.3-572.8c-6.6-0.6-6.8-13.5-37-11.6c-30.3,1.9-54.1,20.6-52.2,62.8c1.9,42.2,29.6,54.1,38,76&#10;&#9;&#9;&#9;&#9;s6.5,41.9,6.5,41.9s9.8-22.5,29.3-35.7c19.5-13.2,55.9-37.4,67.5-68.8s-0.6-52.6-11.9-61.9C242.3-584.6,231-572.2,223.3-572.8z"/>
			<path fill="#B3D67E" d="M246.8-549.4l5.2,9.4l0.2-5.6c6.3,4.8,15.7,19.6,15.7,19.6c-4.8-15-15.2-26.3-15.2-26.3H268&#10;&#9;&#9;&#9;&#9;c-8.2-4.6-21-3.6-21-3.6l-8.9-7.7l8.9-2.2c-6.3-2.4-12.3,0-12.3,0l-6.3-2.9c2.7-21.1,3.7-36.9,3.7-36.9h-10.6&#10;&#9;&#9;&#9;&#9;c0,0,0.2,15.2-1.6,36.7c-4.4,1.2-11.7,3.2-17.7,5.3l-14.7-9.9H173c0,0,10.6,0.7,13.5,3.9s11.7,8.5,11.7,8.5l-24,13.3l-14.7,2.2&#10;&#9;&#9;&#9;&#9;l9.7,1.7c0,0-7,4.8-12.3,9.7c-5.3,4.8-8.9,16.9-8.9,16.9s6-10.9,10.4-14c4.3-3.1,14-8.9,14-8.9s-1.7,6-1.2,12.1&#10;&#9;&#9;&#9;&#9;c0,0,3.6-10.9,7.5-15.2c3.9-4.3,14-9.9,14-9.9s-4.6,8.7-6.9,14.5l13.2-16.4c0,0,10-6.2,20.5-9.5c-0.6,6.3-1.3,13-2.2,20&#10;&#9;&#9;&#9;&#9;c-2.5,0.7-6.8,2.1-11.1,4c-6.5,2.9-18.8,10.1-18.8,10.1l-11.1,1.9l8,1.7c0,0-11.4,6-16.2,8l-12.8,1.7l8.7,1.7&#10;&#9;&#9;&#9;&#9;c0,0-9.7,6.5-13.5,12.6c0,0,12.3-8.7,22.9-14.2c10.6-5.6,16.2-6.9,16.2-6.9l-1.4,8.3l6.8-11.4c0,0,5.3-4.1,11.8-8&#10;&#9;&#9;&#9;&#9;c3.7-2.2,7.4-3.6,9.8-4.3c-0.7,4.7-1.5,9.4-2.4,14.2c-0.1,0.4-0.2,0.9-0.3,1.4c-5.4,3.1-16.1,9.3-20.5,11.4c-6,2.9-13.5,0-13.5,0&#10;&#9;&#9;&#9;&#9;l5.9,4.4c0,0-5.2,5.3-13.4,7.9c-8.2,2.7-19.8,12.3-19.8,12.3s13.5-6.5,19.3-8.2c5.8-1.7,19.6-10.7,19.6-10.7l-7.2,11l14.2-15&#10;&#9;&#9;&#9;&#9;l14.4-7.8c-1.1,5.2-2.4,10.6-3.8,16.2c-3,1.1-7.7,2.9-12.3,5.4c-7.5,4.1-18.1,10.9-18.1,10.9l-17.4,5.3c0,0,15-1.2,18.4-1.7&#10;&#9;&#9;&#9;&#9;L168.5-460c0,0,6.5-9.2,10.1-14.2c3.6-5.1,5.3-11.6,9.4-13.8c3.1-1.6,14.4-7.6,19.9-10.5c-2,7.5-4.1,15.1-6.3,22.5&#10;&#9;&#9;&#9;&#9;c-8.7,4.6-19.9,12-19.9,12c-1.2,2.4-4.8,7.2-4.8,7.2c6.7-4.9,18.5-12.2,23.5-15.2c-8.1,26.8-16.3,49-16.3,49s8.6-18.7,18-43.2&#10;&#9;&#9;&#9;&#9;l4,12.1l1.9-4.8l-3.4-8l-0.5-4.4c2.7-7.4,5.5-15.1,8.1-23c10.4,7.8,13.5,17.6,13.5,17.6l4.3,1l-4.3-7.5&#10;&#9;&#9;&#9;&#9;c7.2,1.2,17.9,5.6,17.9,5.6c-3.6-6.5-10.6-6.3-17.9-10.1c-5.6-3-10.6-7.4-12.6-9.2c1.2-3.7,2.3-7.3,3.4-11&#10;&#9;&#9;&#9;&#9;c0.3-1.1,0.6-2.1,0.9-3.2l3.9,1.7c0,0,9.2,7,13,9.7c3.9,2.7,9.2,10.1,9.2,10.1l-3.8-8.7c7.3,3.6,19.5,1.9,19.5,1.9&#10;&#9;&#9;&#9;&#9;s-3.9-1-14.5-3.6c-10.6-2.7-14.5-6.6-14.5-6.6l6.5-5.2c0,0-7,2.2-11.1,1c-2.4-0.7-5.2-2.7-7.2-4.2c1.9-7.4,3.6-15.2,5.1-22.9&#10;&#9;&#9;&#9;&#9;l8.4,7.1l4.8,12.1v-8.5c0,0,9.7,8.7,13.3,10.1c3.6,1.4,15.7,7.7,15.7,7.7c-5.8-4.6-14.5-10.9-14.5-10.9l10.4-1.7l-14.9-3.6&#10;&#9;&#9;&#9;&#9;l-11-7.2l14.5-1c-7.2-4.6-18.4-3.9-18.4-3.9l-7.5-5.3c1.3-7.4,2.4-14.6,3.3-21.4C238.8-559,246.8-549.4,246.8-549.4z"/>
		</g>
		<g>
			<path fill="#C6D357" d="M673.9-693.1c-6.6-0.6-6.8-13.5-37-11.6c-30.3,1.9-54.1,20.6-52.2,62.8s29.6,54.1,38,76&#10;&#9;&#9;&#9;&#9;c8.4,21.9,6.5,41.9,6.5,41.9s9.8-22.5,29.3-35.7c19.5-13.2,55.9-37.4,67.5-68.8s-0.6-52.6-11.9-61.9&#10;&#9;&#9;&#9;&#9;C692.9-704.9,681.6-692.4,673.9-693.1z"/>
			<path fill="#DCDD70" d="M697.4-669.7l5.2,9.4l0.2-5.6c6.3,4.8,15.7,19.6,15.7,19.6c-4.8-15-15.2-26.3-15.2-26.3h15.2&#10;&#9;&#9;&#9;&#9;c-8.2-4.6-21-3.6-21-3.6l-8.9-7.7l8.9-2.2c-6.3-2.4-12.3,0-12.3,0l-6.3-2.9c2.7-21.1,3.7-36.9,3.7-36.9h-10.6&#10;&#9;&#9;&#9;&#9;c0,0,0.2,15.2-1.6,36.7c-4.4,1.2-11.7,3.2-17.7,5.3l-14.7-9.9h-14.2c0,0,10.6,0.7,13.5,3.9c2.9,3.1,11.7,8.5,11.7,8.5l-24,13.3&#10;&#9;&#9;&#9;&#9;l-14.7,2.2l9.7,1.7c0,0-7,4.8-12.3,9.7c-5.3,4.8-8.9,16.9-8.9,16.9s6-10.9,10.4-14s14-8.9,14-8.9s-1.7,6-1.2,12.1&#10;&#9;&#9;&#9;&#9;c0,0,3.6-10.9,7.5-15.2s14-9.9,14-9.9s-4.6,8.7-6.9,14.5l13.2-16.4c0,0,10-6.2,20.5-9.5c-0.6,6.3-1.3,13-2.2,20&#10;&#9;&#9;&#9;&#9;c-2.5,0.7-6.8,2.1-11.1,4c-6.5,2.9-18.8,10.1-18.8,10.1l-11.1,1.9l8,1.7c0,0-11.4,6-16.2,8l-12.8,1.7l8.7,1.7&#10;&#9;&#9;&#9;&#9;c0,0-9.7,6.5-13.5,12.6c0,0,12.3-8.7,22.9-14.2c10.6-5.6,16.2-6.9,16.2-6.9l-1.4,8.3l6.8-11.4c0,0,5.3-4.1,11.8-8&#10;&#9;&#9;&#9;&#9;c3.7-2.2,7.4-3.6,9.8-4.3c-0.7,4.7-1.5,9.4-2.4,14.2c-0.1,0.4-0.2,0.9-0.3,1.4c-5.4,3.1-16.1,9.3-20.5,11.4c-6,2.9-13.5,0-13.5,0&#10;&#9;&#9;&#9;&#9;l5.9,4.4c0,0-5.2,5.3-13.4,7.9c-8.2,2.7-19.8,12.3-19.8,12.3s13.5-6.5,19.3-8.2c5.8-1.7,19.6-10.7,19.6-10.7l-7.2,11l14.2-15&#10;&#9;&#9;&#9;&#9;l14.4-7.8c-1.1,5.2-2.4,10.6-3.8,16.2c-3,1.1-7.7,2.9-12.3,5.4c-7.5,4.1-18.1,10.9-18.1,10.9l-17.4,5.3c0,0,15-1.2,18.4-1.7&#10;&#9;&#9;&#9;&#9;L619-580.3c0,0,6.5-9.2,10.1-14.2s5.3-11.6,9.4-13.8c3.1-1.6,14.4-7.6,19.9-10.5c-2,7.5-4.1,15.1-6.3,22.5&#10;&#9;&#9;&#9;&#9;c-8.7,4.6-19.9,12-19.9,12c-1.2,2.4-4.8,7.2-4.8,7.2c6.7-4.9,18.5-12.2,23.5-15.2c-8.1,26.8-16.3,49-16.3,49s8.6-18.7,18-43.2&#10;&#9;&#9;&#9;&#9;l4,12.1l1.9-4.8l-3.4-8l-0.5-4.4c2.7-7.4,5.5-15.1,8.1-23c10.4,7.8,13.5,17.6,13.5,17.6l4.3,1l-4.3-7.5&#10;&#9;&#9;&#9;&#9;c7.2,1.2,17.9,5.6,17.9,5.6c-3.6-6.5-10.6-6.3-17.9-10.1c-5.6-3-10.6-7.4-12.6-9.2c1.2-3.7,2.3-7.3,3.4-11&#10;&#9;&#9;&#9;&#9;c0.3-1.1,0.6-2.1,0.9-3.2l3.9,1.7c0,0,9.2,7,13,9.7c3.9,2.7,9.2,10.1,9.2,10.1l-3.8-8.7c7.3,3.6,19.5,1.9,19.5,1.9&#10;&#9;&#9;&#9;&#9;s-3.9-1-14.5-3.6c-10.6-2.7-14.5-6.6-14.5-6.6l6.5-5.2c0,0-7,2.2-11.1,1c-2.4-0.7-5.2-2.7-7.2-4.2c1.9-7.4,3.6-15.2,5.1-22.9&#10;&#9;&#9;&#9;&#9;l8.4,7.1l4.8,12.1v-8.5c0,0,9.7,8.7,13.3,10.1s15.7,7.7,15.7,7.7c-5.8-4.6-14.5-10.9-14.5-10.9l10.4-1.7l-14.9-3.6l-11-7.2&#10;&#9;&#9;&#9;&#9;l14.5-1c-7.2-4.6-18.4-3.9-18.4-3.9l-7.5-5.3c1.3-7.4,2.4-14.6,3.3-21.4C689.4-679.3,697.4-669.7,697.4-669.7z"/>
		</g>
		<g>
			<path fill="#A4C85D" d="M661.7-875.7c-6.6-0.6-6.8-13.5-37-11.6c-30.3,1.9-54.1,20.6-52.2,62.8s29.6,54.1,38,76&#10;&#9;&#9;&#9;&#9;c8.4,21.9,6.5,41.9,6.5,41.9s9.8-22.5,29.3-35.7c19.5-13.2,55.9-37.4,67.5-68.8s-0.6-52.6-11.9-61.9&#10;&#9;&#9;&#9;&#9;C680.7-887.4,669.4-875,661.7-875.7z"/>
			<path fill="#B3D67E" d="M685.2-852.2l5.2,9.4l0.2-5.6c6.3,4.8,15.7,19.6,15.7,19.6c-4.8-15-15.2-26.3-15.2-26.3h15.2&#10;&#9;&#9;&#9;&#9;c-8.2-4.6-21-3.6-21-3.6l-8.9-7.7l8.9-2.2c-6.3-2.4-12.3,0-12.3,0l-6.3-2.9c2.7-21.1,3.7-36.9,3.7-36.9h-10.6&#10;&#9;&#9;&#9;&#9;c0,0,0.2,15.2-1.6,36.7c-4.4,1.2-11.7,3.2-17.7,5.3l-14.7-9.9h-14.2c0,0,10.6,0.7,13.5,3.9s11.7,8.5,11.7,8.5l-24,13.3l-14.7,2.2&#10;&#9;&#9;&#9;&#9;l9.7,1.7c0,0-7,4.8-12.3,9.7c-5.3,4.8-8.9,16.9-8.9,16.9s6-10.9,10.4-14c4.3-3.1,14-8.9,14-8.9s-1.7,6-1.2,12.1&#10;&#9;&#9;&#9;&#9;c0,0,3.6-10.9,7.5-15.2s14-9.9,14-9.9s-4.6,8.7-6.9,14.5l13.2-16.4c0,0,10-6.2,20.5-9.5c-0.6,6.3-1.3,13-2.2,20&#10;&#9;&#9;&#9;&#9;c-2.5,0.7-6.8,2.1-11.1,4c-6.5,2.9-18.8,10.1-18.8,10.1l-11.1,1.9l8,1.7c0,0-11.4,6-16.2,8l-12.8,1.7l8.7,1.7&#10;&#9;&#9;&#9;&#9;c0,0-9.7,6.5-13.5,12.6c0,0,12.3-8.7,22.9-14.2c10.6-5.6,16.2-6.9,16.2-6.9l-1.4,8.3l6.8-11.4c0,0,5.3-4.1,11.8-8&#10;&#9;&#9;&#9;&#9;c3.7-2.2,7.4-3.6,9.8-4.3c-0.7,4.7-1.5,9.4-2.4,14.2c-0.1,0.4-0.2,0.9-0.3,1.4c-5.4,3.1-16.1,9.3-20.5,11.4c-6,2.9-13.5,0-13.5,0&#10;&#9;&#9;&#9;&#9;l5.9,4.4c0,0-5.2,5.3-13.4,7.9c-8.2,2.7-19.8,12.3-19.8,12.3s13.5-6.5,19.3-8.2c5.8-1.7,19.6-10.7,19.6-10.7l-7.2,11l14.2-15&#10;&#9;&#9;&#9;&#9;l14.4-7.8c-1.1,5.2-2.4,10.6-3.8,16.2c-3,1.1-7.7,2.9-12.3,5.4c-7.5,4.1-18.1,10.9-18.1,10.9l-17.4,5.3c0,0,15-1.2,18.4-1.7&#10;&#9;&#9;&#9;&#9;l-11.1,22.7c0,0,6.5-9.2,10.1-14.2c3.6-5.1,5.3-11.6,9.4-13.8c3.1-1.6,14.4-7.6,19.9-10.5c-2,7.5-4.1,15.1-6.3,22.5&#10;&#9;&#9;&#9;&#9;c-8.7,4.6-19.9,12-19.9,12c-1.2,2.4-4.8,7.2-4.8,7.2c6.7-4.9,18.5-12.2,23.5-15.2c-8.1,26.8-16.3,49-16.3,49s8.6-18.7,18-43.2&#10;&#9;&#9;&#9;&#9;l4,12.1l1.9-4.8l-3.4-8l-0.5-4.4c2.7-7.4,5.5-15.1,8.1-23c10.4,7.8,13.5,17.6,13.5,17.6l4.3,1l-4.3-7.5&#10;&#9;&#9;&#9;&#9;c7.2,1.2,17.9,5.6,17.9,5.6c-3.6-6.5-10.6-6.3-17.9-10.1c-5.6-3-10.6-7.4-12.6-9.2c1.2-3.7,2.3-7.3,3.4-11&#10;&#9;&#9;&#9;&#9;c0.3-1.1,0.6-2.1,0.9-3.2l3.9,1.7c0,0,9.2,7,13,9.7c3.9,2.7,9.2,10.1,9.2,10.1l-3.8-8.7c7.3,3.6,19.5,1.9,19.5,1.9&#10;&#9;&#9;&#9;&#9;s-3.9-1-14.5-3.6c-10.6-2.7-14.5-6.6-14.5-6.6l6.5-5.2c0,0-7,2.2-11.1,1c-2.4-0.7-5.2-2.7-7.2-4.2c1.9-7.4,3.6-15.2,5.1-22.9&#10;&#9;&#9;&#9;&#9;l8.4,7.1l4.8,12.1v-8.5c0,0,9.7,8.7,13.3,10.1c3.6,1.4,15.7,7.7,15.7,7.7c-5.8-4.6-14.5-10.9-14.5-10.9l10.4-1.7l-14.9-3.6&#10;&#9;&#9;&#9;&#9;l-11-7.2l14.5-1c-7.2-4.6-18.4-3.9-18.4-3.9l-7.5-5.3c1.3-7.4,2.4-14.6,3.3-21.4C677.2-861.9,685.2-852.2,685.2-852.2z"/>
			<path fill="#C6D357" d="M381.6-693.1c-6.6-0.6-6.8-13.5-37-11.6s-54.1,20.6-52.2,62.8c1.9,42.2,29.6,54.1,38,76&#10;&#9;&#9;&#9;&#9;c8.4,21.9,6.5,41.9,6.5,41.9s9.8-22.5,29.3-35.7s55.9-37.4,67.5-68.8s-0.6-52.6-11.9-61.9C400.6-704.9,389.3-692.4,381.6-693.1z"/>
			<path fill="#DCDD70" d="M405.1-669.7l5.2,9.4l0.2-5.6c6.3,4.8,15.7,19.6,15.7,19.6c-4.8-15-15.2-26.3-15.2-26.3h15.2&#10;&#9;&#9;&#9;&#9;c-8.2-4.6-21-3.6-21-3.6l-8.9-7.7l8.9-2.2c-6.3-2.4-12.3,0-12.3,0l-6.3-2.9c2.7-21.1,3.7-36.9,3.7-36.9h-10.6&#10;&#9;&#9;&#9;&#9;c0,0,0.2,15.2-1.6,36.7c-4.4,1.2-11.7,3.2-17.7,5.3l-14.7-9.9h-14.2c0,0,10.6,0.7,13.5,3.9c2.9,3.1,11.7,8.5,11.7,8.5l-24,13.3&#10;&#9;&#9;&#9;&#9;l-14.7,2.2l9.7,1.7c0,0-7,4.8-12.3,9.7c-5.3,4.8-8.9,16.9-8.9,16.9s6-10.9,10.4-14s14-8.9,14-8.9s-1.7,6-1.2,12.1&#10;&#9;&#9;&#9;&#9;c0,0,3.6-10.9,7.5-15.2c3.9-4.3,14-9.9,14-9.9s-4.6,8.7-6.9,14.5l13.2-16.4c0,0,10-6.2,20.5-9.5c-0.6,6.3-1.3,13-2.2,20&#10;&#9;&#9;&#9;&#9;c-2.5,0.7-6.8,2.1-11.1,4c-6.5,2.9-18.8,10.1-18.8,10.1l-11.1,1.9l8,1.7c0,0-11.4,6-16.2,8l-12.8,1.7l8.7,1.7&#10;&#9;&#9;&#9;&#9;c0,0-9.7,6.5-13.5,12.6c0,0,12.3-8.7,22.9-14.2s16.2-6.9,16.2-6.9l-1.4,8.3l6.8-11.4c0,0,5.3-4.1,11.8-8c3.7-2.2,7.4-3.6,9.8-4.3&#10;&#9;&#9;&#9;&#9;c-0.7,4.7-1.5,9.4-2.4,14.2c-0.1,0.4-0.2,0.9-0.3,1.4c-5.4,3.1-16.1,9.3-20.5,11.4c-6,2.9-13.5,0-13.5,0l5.9,4.4&#10;&#9;&#9;&#9;&#9;c0,0-5.2,5.3-13.4,7.9s-19.8,12.3-19.8,12.3s13.5-6.5,19.3-8.2s19.6-10.7,19.6-10.7l-7.2,11l14.2-15l14.4-7.8&#10;&#9;&#9;&#9;&#9;c-1.1,5.2-2.4,10.6-3.8,16.2c-3,1.1-7.7,2.9-12.3,5.4c-7.5,4.1-18.1,10.9-18.1,10.9l-17.4,5.3c0,0,15-1.2,18.4-1.7l-11.1,22.7&#10;&#9;&#9;&#9;&#9;c0,0,6.5-9.2,10.1-14.2s5.3-11.6,9.4-13.8c3.1-1.6,14.4-7.6,19.9-10.5c-2,7.5-4.1,15.1-6.3,22.5c-8.7,4.6-19.9,12-19.9,12&#10;&#9;&#9;&#9;&#9;c-1.2,2.4-4.8,7.2-4.8,7.2c6.7-4.9,18.5-12.2,23.5-15.2c-8.1,26.8-16.3,49-16.3,49s8.6-18.7,18-43.2l4,12.1l1.9-4.8l-3.4-8&#10;&#9;&#9;&#9;&#9;l-0.5-4.4c2.7-7.4,5.5-15.1,8.1-23c10.4,7.8,13.5,17.6,13.5,17.6l4.3,1l-4.3-7.5c7.2,1.2,17.9,5.6,17.9,5.6&#10;&#9;&#9;&#9;&#9;c-3.6-6.5-10.6-6.3-17.9-10.1c-5.6-3-10.6-7.4-12.6-9.2c1.2-3.7,2.3-7.3,3.4-11c0.3-1.1,0.6-2.1,0.9-3.2l3.9,1.7&#10;&#9;&#9;&#9;&#9;c0,0,9.2,7,13,9.7c3.9,2.7,9.2,10.1,9.2,10.1l-3.8-8.7c7.3,3.6,19.5,1.9,19.5,1.9s-3.9-1-14.5-3.6s-14.5-6.6-14.5-6.6l6.5-5.2&#10;&#9;&#9;&#9;&#9;c0,0-7,2.2-11.1,1c-2.4-0.7-5.2-2.7-7.2-4.2c1.9-7.4,3.6-15.2,5.1-22.9l8.4,7.1l4.8,12.1v-8.5c0,0,9.7,8.7,13.3,10.1&#10;&#9;&#9;&#9;&#9;s15.7,7.7,15.7,7.7c-5.8-4.6-14.5-10.9-14.5-10.9l10.4-1.7l-14.9-3.6l-11-7.2l14.5-1c-7.2-4.6-18.4-3.9-18.4-3.9l-7.5-5.3&#10;&#9;&#9;&#9;&#9;c1.3-7.4,2.4-14.6,3.3-21.4C397.1-679.3,405.1-669.7,405.1-669.7z"/>
			<path fill="#7BB157" d="M483.1-774.7c6.6-0.6,6.8-13.5,37-11.6c30.3,1.9,54.1,20.6,52.2,62.8c-1.9,42.2-29.6,54.1-38,76&#10;&#9;&#9;&#9;&#9;c-8.4,21.9-6.5,41.9-6.5,41.9s-9.8-22.5-29.3-35.7s-55.9-37.4-67.5-68.8s0.6-52.6,11.9-61.9C464.1-786.5,475.4-774.1,483.1-774.7&#10;&#9;&#9;&#9;&#9;z"/>
			<path fill="#8FC267" d="M459.6-751.3l-5.2,9.4l-0.2-5.6c-6.3,4.8-15.7,19.6-15.7,19.6c4.8-15,15.2-26.3,15.2-26.3h-15.2&#10;&#9;&#9;&#9;&#9;c8.2-4.6,21-3.6,21-3.6l8.9-7.7l-8.9-2.2c6.3-2.4,12.3,0,12.3,0l6.3-2.9c-2.7-21.1-3.7-36.9-3.7-36.9H485c0,0-0.2,15.2,1.6,36.7&#10;&#9;&#9;&#9;&#9;c4.4,1.2,11.7,3.2,17.7,5.3l14.7-9.9h14.2c0,0-10.6,0.7-13.5,3.9s-11.7,8.5-11.7,8.5l24,13.3l14.7,2.2l-9.7,1.7&#10;&#9;&#9;&#9;&#9;c0,0,7,4.8,12.3,9.7c5.3,4.8,8.9,16.9,8.9,16.9s-6-10.9-10.4-14s-14-8.9-14-8.9s1.7,6,1.2,12.1c0,0-3.6-10.9-7.5-15.2&#10;&#9;&#9;&#9;&#9;c-3.9-4.3-14-9.9-14-9.9s4.6,8.7,6.9,14.5l-13.2-16.4c0,0-10-6.2-20.5-9.5c0.6,6.3,1.3,13,2.2,20c2.5,0.7,6.8,2.1,11.1,4&#10;&#9;&#9;&#9;&#9;c6.5,2.9,18.8,10.1,18.8,10.1l11.1,1.9l-8,1.7c0,0,11.4,6,16.2,8l12.8,1.7l-8.7,1.7c0,0,9.7,6.5,13.5,12.6&#10;&#9;&#9;&#9;&#9;c0,0-12.3-8.7-22.9-14.2c-10.6-5.6-16.2-6.9-16.2-6.9l1.4,8.3l-6.8-11.4c0,0-5.3-4.1-11.8-8c-3.7-2.2-7.4-3.6-9.8-4.3&#10;&#9;&#9;&#9;&#9;c0.7,4.7,1.5,9.4,2.4,14.2c0.1,0.4,0.2,0.9,0.3,1.4c5.4,3.1,16.1,9.3,20.5,11.4c6,2.9,13.5,0,13.5,0l-5.9,4.4&#10;&#9;&#9;&#9;&#9;c0,0,5.2,5.3,13.4,7.9c8.2,2.7,19.8,12.3,19.8,12.3s-13.5-6.5-19.3-8.2c-5.8-1.7-19.6-10.7-19.6-10.7l7.2,11l-14.2-15l-14.4-7.8&#10;&#9;&#9;&#9;&#9;c1.1,5.2,2.4,10.6,3.8,16.2c3,1.1,7.7,2.9,12.3,5.4c7.5,4.1,18.1,10.9,18.1,10.9l17.4,5.3c0,0-15-1.2-18.4-1.7l11.1,22.7&#10;&#9;&#9;&#9;&#9;c0,0-6.5-9.2-10.1-14.2s-5.3-11.6-9.4-13.8c-3.1-1.6-14.4-7.6-19.9-10.5c2,7.5,4.1,15.1,6.3,22.5c8.7,4.6,19.9,12,19.9,12&#10;&#9;&#9;&#9;&#9;c1.2,2.4,4.8,7.2,4.8,7.2c-6.7-4.9-18.5-12.2-23.5-15.2c8.1,26.8,16.3,49,16.3,49s-8.6-18.7-18-43.2l-4,12.1l-1.9-4.8l3.4-8&#10;&#9;&#9;&#9;&#9;l0.5-4.4c-2.7-7.4-5.5-15.1-8.1-23c-10.4,7.8-13.5,17.6-13.5,17.6l-4.3,1l4.3-7.5c-7.2,1.2-17.9,5.6-17.9,5.6&#10;&#9;&#9;&#9;&#9;c3.6-6.5,10.6-6.3,17.9-10.1c5.6-3,10.6-7.4,12.6-9.2c-1.2-3.7-2.3-7.3-3.4-11c-0.3-1.1-0.6-2.1-0.9-3.2l-3.9,1.7&#10;&#9;&#9;&#9;&#9;c0,0-9.2,7-13,9.7c-3.9,2.7-9.2,10.1-9.2,10.1l3.8-8.7c-7.3,3.6-19.5,1.9-19.5,1.9s3.9-1,14.5-3.6c10.6-2.7,14.5-6.6,14.5-6.6&#10;&#9;&#9;&#9;&#9;l-6.5-5.2c0,0,7,2.2,11.1,1c2.4-0.7,5.2-2.7,7.2-4.2c-1.9-7.4-3.6-15.2-5.1-22.9l-8.4,7.1l-4.8,12.1v-8.5c0,0-9.7,8.7-13.3,10.1&#10;&#9;&#9;&#9;&#9;c-3.6,1.4-15.7,7.7-15.7,7.7c5.8-4.6,14.5-10.9,14.5-10.9l-10.4-1.7l14.9-3.6l11-7.2l-14.5-1c7.2-4.6,18.4-3.9,18.4-3.9l7.5-5.3&#10;&#9;&#9;&#9;&#9;c-1.3-7.4-2.4-14.6-3.3-21.4C467.6-760.9,459.6-751.3,459.6-751.3z"/>
		</g>
		<g>
			<path fill="#A4C85D" d="M369.4-875.7c-6.6-0.6-6.8-13.5-37-11.6s-54.1,20.6-52.2,62.8s29.6,54.1,38,76&#10;&#9;&#9;&#9;&#9;c8.4,21.9,6.5,41.9,6.5,41.9s9.8-22.5,29.3-35.7c19.5-13.2,55.9-37.4,67.5-68.8s-0.6-52.6-11.9-61.9&#10;&#9;&#9;&#9;&#9;C388.4-887.4,377.1-875,369.4-875.7z"/>
			<path fill="#B3D67E" d="M393-852.2l5.2,9.4l0.2-5.6c6.3,4.8,15.7,19.6,15.7,19.6c-4.8-15-15.2-26.3-15.2-26.3h15.2&#10;&#9;&#9;&#9;&#9;c-8.2-4.6-21-3.6-21-3.6l-8.9-7.7l8.9-2.2c-6.3-2.4-12.3,0-12.3,0l-6.3-2.9c2.7-21.1,3.7-36.9,3.7-36.9h-10.6&#10;&#9;&#9;&#9;&#9;c0,0,0.2,15.2-1.6,36.7c-4.4,1.2-11.7,3.2-17.7,5.3l-14.7-9.9h-14.2c0,0,10.6,0.7,13.5,3.9c2.9,3.1,11.7,8.5,11.7,8.5l-24,13.3&#10;&#9;&#9;&#9;&#9;l-14.7,2.2l9.7,1.7c0,0-7,4.8-12.3,9.7c-5.3,4.8-8.9,16.9-8.9,16.9s6-10.9,10.4-14c4.3-3.1,14-8.9,14-8.9s-1.7,6-1.2,12.1&#10;&#9;&#9;&#9;&#9;c0,0,3.6-10.9,7.5-15.2s14-9.9,14-9.9s-4.6,8.7-6.9,14.5l13.2-16.4c0,0,10-6.2,20.5-9.5c-0.6,6.3-1.3,13-2.2,20&#10;&#9;&#9;&#9;&#9;c-2.5,0.7-6.8,2.1-11.1,4c-6.5,2.9-18.8,10.1-18.8,10.1l-11.1,1.9l8,1.7c0,0-11.4,6-16.2,8l-12.8,1.7l8.7,1.7&#10;&#9;&#9;&#9;&#9;c0,0-9.7,6.5-13.5,12.6c0,0,12.3-8.7,22.9-14.2s16.2-6.9,16.2-6.9l-1.4,8.3l6.8-11.4c0,0,5.3-4.1,11.8-8c3.7-2.2,7.4-3.6,9.8-4.3&#10;&#9;&#9;&#9;&#9;c-0.7,4.7-1.5,9.4-2.4,14.2c-0.1,0.4-0.2,0.9-0.3,1.4c-5.4,3.1-16.1,9.3-20.5,11.4c-6,2.9-13.5,0-13.5,0l5.9,4.4&#10;&#9;&#9;&#9;&#9;c0,0-5.2,5.3-13.4,7.9c-8.2,2.7-19.8,12.3-19.8,12.3s13.5-6.5,19.3-8.2c5.8-1.7,19.6-10.7,19.6-10.7l-7.2,11l14.2-15l14.4-7.8&#10;&#9;&#9;&#9;&#9;c-1.1,5.2-2.4,10.6-3.8,16.2c-3,1.1-7.7,2.9-12.3,5.4c-7.5,4.1-18.1,10.9-18.1,10.9l-17.4,5.3c0,0,15-1.2,18.4-1.7l-11.1,22.7&#10;&#9;&#9;&#9;&#9;c0,0,6.5-9.2,10.1-14.2c3.6-5.1,5.3-11.6,9.4-13.8c3.1-1.6,14.4-7.6,19.9-10.5c-2,7.5-4.1,15.1-6.3,22.5&#10;&#9;&#9;&#9;&#9;c-8.7,4.6-19.9,12-19.9,12c-1.2,2.4-4.8,7.2-4.8,7.2c6.7-4.9,18.5-12.2,23.5-15.2c-8.1,26.8-16.3,49-16.3,49s8.6-18.7,18-43.2&#10;&#9;&#9;&#9;&#9;l4,12.1l1.9-4.8l-3.4-8l-0.5-4.4c2.7-7.4,5.5-15.1,8.1-23c10.4,7.8,13.5,17.6,13.5,17.6l4.3,1l-4.3-7.5&#10;&#9;&#9;&#9;&#9;c7.2,1.2,17.9,5.6,17.9,5.6c-3.6-6.5-10.6-6.3-17.9-10.1c-5.6-3-10.6-7.4-12.6-9.2c1.2-3.7,2.3-7.3,3.4-11&#10;&#9;&#9;&#9;&#9;c0.3-1.1,0.6-2.1,0.9-3.2l3.9,1.7c0,0,9.2,7,13,9.7c3.9,2.7,9.2,10.1,9.2,10.1l-3.8-8.7c7.3,3.6,19.5,1.9,19.5,1.9&#10;&#9;&#9;&#9;&#9;s-3.9-1-14.5-3.6c-10.6-2.7-14.5-6.6-14.5-6.6l6.5-5.2c0,0-7,2.2-11.1,1c-2.4-0.7-5.2-2.7-7.2-4.2c1.9-7.4,3.6-15.2,5.1-22.9&#10;&#9;&#9;&#9;&#9;l8.4,7.1l4.8,12.1v-8.5c0,0,9.7,8.7,13.3,10.1c3.6,1.4,15.7,7.7,15.7,7.7c-5.8-4.6-14.5-10.9-14.5-10.9l10.4-1.7l-14.9-3.6&#10;&#9;&#9;&#9;&#9;l-11-7.2l14.5-1c-7.2-4.6-18.4-3.9-18.4-3.9l-7.5-5.3c1.3-7.4,2.4-14.6,3.3-21.4C384.9-861.9,393-852.2,393-852.2z"/>
			<path fill="#C6D357" d="M89.3-693.1c-6.6-0.6-6.8-13.5-37-11.6s-54.1,20.6-52.2,62.8s29.6,54.1,38,76s6.5,41.9,6.5,41.9&#10;&#9;&#9;&#9;&#9;s9.8-22.5,29.3-35.7s55.9-37.4,67.5-68.8s-0.6-52.6-11.9-61.9C108.3-704.9,97-692.4,89.3-693.1z"/>
			<path fill="#7BB157" d="M190.8-774.7c6.6-0.6,6.8-13.5,37-11.6c30.3,1.9,54.1,20.6,52.2,62.8c-1.9,42.2-29.6,54.1-38,76&#10;&#9;&#9;&#9;&#9;s-6.5,41.9-6.5,41.9s-9.8-22.5-29.3-35.7s-55.9-37.4-67.5-68.8c-11.6-31.4,0.6-52.6,11.9-61.9&#10;&#9;&#9;&#9;&#9;C171.8-786.5,183.1-774.1,190.8-774.7z"/>
			<path fill="#8FC267" d="M167.3-751.3l-5.2,9.4l-0.2-5.6c-6.3,4.8-15.7,19.6-15.7,19.6c4.8-15,15.2-26.3,15.2-26.3h-15.2&#10;&#9;&#9;&#9;&#9;c8.2-4.6,21-3.6,21-3.6l8.9-7.7l-8.9-2.2c6.3-2.4,12.3,0,12.3,0l6.3-2.9c-2.7-21.1-3.7-36.9-3.7-36.9h10.6c0,0-0.2,15.2,1.6,36.7&#10;&#9;&#9;&#9;&#9;c4.4,1.2,11.7,3.2,17.7,5.3l14.7-9.9H241c0,0-10.6,0.7-13.5,3.9s-11.7,8.5-11.7,8.5l24,13.3l14.7,2.2l-9.7,1.7&#10;&#9;&#9;&#9;&#9;c0,0,7,4.8,12.3,9.7c5.3,4.8,8.9,16.9,8.9,16.9s-6-10.9-10.4-14c-4.3-3.1-14-8.9-14-8.9s1.7,6,1.2,12.1c0,0-3.6-10.9-7.5-15.2&#10;&#9;&#9;&#9;&#9;c-3.9-4.3-14-9.9-14-9.9s4.6,8.7,6.9,14.5l-13.2-16.4c0,0-10-6.2-20.5-9.5c0.6,6.3,1.3,13,2.2,20c2.5,0.7,6.8,2.1,11.1,4&#10;&#9;&#9;&#9;&#9;c6.5,2.9,18.8,10.1,18.8,10.1l11.1,1.9l-8,1.7c0,0,11.4,6,16.2,8l12.8,1.7l-8.7,1.7c0,0,9.7,6.5,13.5,12.6&#10;&#9;&#9;&#9;&#9;c0,0-12.3-8.7-22.9-14.2c-10.6-5.6-16.2-6.9-16.2-6.9l1.4,8.3l-6.8-11.4c0,0-5.3-4.1-11.8-8c-3.7-2.2-7.4-3.6-9.8-4.3&#10;&#9;&#9;&#9;&#9;c0.7,4.7,1.5,9.4,2.4,14.2c0.1,0.4,0.2,0.9,0.3,1.4c5.4,3.1,16.1,9.3,20.5,11.4c6,2.9,13.5,0,13.5,0l-5.9,4.4&#10;&#9;&#9;&#9;&#9;c0,0,5.2,5.3,13.4,7.9c8.2,2.7,19.8,12.3,19.8,12.3s-13.5-6.5-19.3-8.2s-19.6-10.7-19.6-10.7l7.2,11l-14.2-15l-14.4-7.8&#10;&#9;&#9;&#9;&#9;c1.1,5.2,2.4,10.6,3.8,16.2c3,1.1,7.7,2.9,12.3,5.4c7.5,4.1,18.1,10.9,18.1,10.9l17.4,5.3c0,0-15-1.2-18.4-1.7l11.1,22.7&#10;&#9;&#9;&#9;&#9;c0,0-6.5-9.2-10.1-14.2c-3.6-5.1-5.3-11.6-9.4-13.8c-3.1-1.6-14.4-7.6-19.9-10.5c2,7.5,4.1,15.1,6.3,22.5&#10;&#9;&#9;&#9;&#9;c8.7,4.6,19.9,12,19.9,12c1.2,2.4,4.8,7.2,4.8,7.2c-6.7-4.9-18.5-12.2-23.5-15.2c8.1,26.8,16.3,49,16.3,49s-8.6-18.7-18-43.2&#10;&#9;&#9;&#9;&#9;l-4,12.1L206-661l3.4-8l0.5-4.4c-2.7-7.4-5.5-15.1-8.1-23c-10.4,7.8-13.5,17.6-13.5,17.6l-4.3,1l4.3-7.5&#10;&#9;&#9;&#9;&#9;c-7.2,1.2-17.9,5.6-17.9,5.6c3.6-6.5,10.6-6.3,17.9-10.1c5.6-3,10.6-7.4,12.6-9.2c-1.2-3.7-2.3-7.3-3.4-11&#10;&#9;&#9;&#9;&#9;c-0.3-1.1-0.6-2.1-0.9-3.2l-3.9,1.7c0,0-9.2,7-13,9.7c-3.9,2.7-9.2,10.1-9.2,10.1l3.8-8.7c-7.3,3.6-19.5,1.9-19.5,1.9&#10;&#9;&#9;&#9;&#9;s3.9-1,14.5-3.6c10.6-2.7,14.5-6.6,14.5-6.6l-6.5-5.2c0,0,7,2.2,11.1,1c2.4-0.7,5.2-2.7,7.2-4.2c-1.9-7.4-3.6-15.2-5.1-22.9&#10;&#9;&#9;&#9;&#9;l-8.4,7.1l-4.8,12.1v-8.5c0,0-9.7,8.7-13.3,10.1c-3.6,1.4-15.7,7.7-15.7,7.7c5.8-4.6,14.5-10.9,14.5-10.9l-10.4-1.7l14.9-3.6&#10;&#9;&#9;&#9;&#9;l11-7.2l-14.5-1c7.2-4.6,18.4-3.9,18.4-3.9l7.5-5.3c-1.3-7.4-2.4-14.6-3.3-21.4C175.3-760.9,167.3-751.3,167.3-751.3z"/>
		</g>
	</g>
</pattern>

<g id="Object">
	<path d="M -11 -13 H 1406.199951 V 993 H -11 V -13 Z" fill="#FFF9B2"/>
	<path d="M -1.5 -5.5 H 1396.699951 V 985.5 H -1.5 V -5.5 Z" fill="url(#New_Pattern_2)"/>
</g>

</svg>